<svg xmlns="http://www.w3.org/2000/svg" viewBox="0 0 490 490" xml:space="preserve">
    <path d="M487.5 357.9c2.7-3.1 4.2-16.3-7.8-17.3h-405a74.8 74.8 0 0 0 0 149.4h405c14.2-1.6 10.4-14.4 7.7-17.4-34.9-38.5-34.8-75 0-114.7M458.2 469H74.7a54 54 0 0 1 0-107.7h383.7q-36.2 54.4-.2 107.7M10.3 319.7h405a74.8 74.8 0 0 0 0-149.4H188.7v-20.9h291c14.2-1.6 10.5-14.3 7.7-17.4-34.9-38.5-34.8-75 0-114.7 2.8-3 4.3-16.3-7.7-17.3h-405a74.8 74.8 0 0 0 0 149.4H88v20.9H10.3c-12 1-10.5 14.2-7.8 17.3 35 39.7 35 76.2.1 114.7-2.7 3-6.5 15.8 7.7 17.4m64.4-191.1a54 54 0 0 1 0-107.7h383.7q-36.2 54.3-.2 107.7H188.7V74.7c0-5.7-4.6-10.4-10.4-10.4H98.5C92.7 64.3 88 69 88 74.7v53.9zM168 85v130.3l-23-18a10.5 10.5 0 0 0-13 0l-23 18V85.1zM88 191.1v45.7c-.6 9.1 6.3 18 16.9 8.2l33.5-26.2 33.5 26.2c11 9 17.7.6 16.8-8.2v-45.7h226.6a54 54 0 0 1 0 107.8H31.8q36-53.4-.2-107.8z"/>
</svg>
